<mxfile host="app.diagrams.net" modified="2024-05-21T03:25:47.622Z" agent="Mozilla/5.0 (Windows NT 10.0; Win64; x64) AppleWebKit/537.36 (KHTML, like Gecko) Chrome/125.0.0.0 Safari/537.36 Edg/125.0.0.0" etag="QXYY7_-H6hBIKh6OPyRr" version="24.4.4" type="github">
  <diagram name="第 1 页" id="_mnCOzUP9DBz8knvAwrc">
    <mxGraphModel dx="4653" dy="2266" grid="1" gridSize="10" guides="1" tooltips="1" connect="1" arrows="1" fold="1" page="1" pageScale="1" pageWidth="827" pageHeight="1169" math="0" shadow="0">
      <root>
        <mxCell id="0" />
        <mxCell id="1" parent="0" />
        <mxCell id="es6LMimWQ2Kn1pDAPc1K-94" value="" style="rounded=0;whiteSpace=wrap;html=1;" parent="1" vertex="1">
          <mxGeometry x="-360" y="60" width="1950" height="670" as="geometry" />
        </mxCell>
        <mxCell id="es6LMimWQ2Kn1pDAPc1K-81" value="&lt;font style=&quot;font-size: 50px;&quot;&gt;数据湖侧&lt;/font&gt;" style="rounded=0;whiteSpace=wrap;html=1;fillColor=#d5e8d4;strokeColor=#82b366;verticalAlign=top;movable=1;resizable=1;rotatable=1;deletable=1;editable=1;locked=0;connectable=1;" parent="1" vertex="1">
          <mxGeometry x="-350" y="940" width="1270" height="370" as="geometry" />
        </mxCell>
        <mxCell id="es6LMimWQ2Kn1pDAPc1K-80" value="&lt;font style=&quot;font-size: 50px;&quot;&gt;IT系统侧&lt;/font&gt;" style="rounded=0;whiteSpace=wrap;html=1;fillColor=#dae8fc;strokeColor=#6c8ebf;verticalAlign=bottom;movable=0;resizable=0;rotatable=0;deletable=0;editable=0;locked=1;connectable=0;" parent="1" vertex="1">
          <mxGeometry x="-348.5" y="1310" width="1268.5" height="470" as="geometry" />
        </mxCell>
        <mxCell id="es6LMimWQ2Kn1pDAPc1K-37" value="&lt;font style=&quot;font-size: 50px;&quot;&gt;数据湖侧&lt;/font&gt;" style="rounded=0;whiteSpace=wrap;html=1;fillColor=#d5e8d4;strokeColor=#82b366;verticalAlign=top;" parent="1" vertex="1">
          <mxGeometry x="650" y="130" width="890" height="480" as="geometry" />
        </mxCell>
        <mxCell id="es6LMimWQ2Kn1pDAPc1K-36" value="&lt;font style=&quot;font-size: 50px;&quot;&gt;IT系统侧&lt;/font&gt;" style="rounded=0;whiteSpace=wrap;html=1;fillColor=#dae8fc;strokeColor=#6c8ebf;verticalAlign=top;" parent="1" vertex="1">
          <mxGeometry x="-320" y="130" width="969" height="480" as="geometry" />
        </mxCell>
        <mxCell id="es6LMimWQ2Kn1pDAPc1K-50" style="edgeStyle=orthogonalEdgeStyle;rounded=0;orthogonalLoop=1;jettySize=auto;html=1;exitX=1;exitY=0.5;exitDx=0;exitDy=0;entryX=0;entryY=0.5;entryDx=0;entryDy=0;fillColor=#e1d5e7;strokeColor=#9673a6;strokeWidth=2;" parent="1" edge="1">
          <mxGeometry relative="1" as="geometry">
            <mxPoint x="24.000000000000455" y="368.0000000000002" as="sourcePoint" />
            <mxPoint x="140" y="368" as="targetPoint" />
          </mxGeometry>
        </mxCell>
        <mxCell id="es6LMimWQ2Kn1pDAPc1K-9" value="&lt;font style=&quot;font-size: 22px;&quot;&gt;&lt;b&gt;IT系统&lt;/b&gt;&lt;/font&gt;" style="rounded=1;whiteSpace=wrap;html=1;dashed=1;verticalAlign=top;fontSize=17;" parent="1" vertex="1">
          <mxGeometry x="-246" y="220" width="270" height="330" as="geometry" />
        </mxCell>
        <mxCell id="es6LMimWQ2Kn1pDAPc1K-1" value="会员中心" style="rounded=0;whiteSpace=wrap;html=1;fontSize=17;" parent="1" vertex="1">
          <mxGeometry x="-106" y="270" width="100" height="50" as="geometry" />
        </mxCell>
        <mxCell id="es6LMimWQ2Kn1pDAPc1K-2" value="C4I" style="rounded=0;whiteSpace=wrap;html=1;fontSize=17;" parent="1" vertex="1">
          <mxGeometry x="-106" y="340" width="100" height="50" as="geometry" />
        </mxCell>
        <mxCell id="es6LMimWQ2Kn1pDAPc1K-3" value="技术中台" style="rounded=0;whiteSpace=wrap;html=1;fontSize=17;" parent="1" vertex="1">
          <mxGeometry x="-106" y="410" width="100" height="50" as="geometry" />
        </mxCell>
        <mxCell id="es6LMimWQ2Kn1pDAPc1K-4" value="... ...&amp;nbsp;" style="rounded=0;whiteSpace=wrap;html=1;fontSize=17;" parent="1" vertex="1">
          <mxGeometry x="-106" y="480" width="100" height="50" as="geometry" />
        </mxCell>
        <mxCell id="es6LMimWQ2Kn1pDAPc1K-5" value="CRM" style="rounded=0;whiteSpace=wrap;html=1;fontSize=17;" parent="1" vertex="1">
          <mxGeometry x="-226" y="270" width="100" height="50" as="geometry" />
        </mxCell>
        <mxCell id="es6LMimWQ2Kn1pDAPc1K-6" value="SFA" style="rounded=0;whiteSpace=wrap;html=1;fontSize=17;" parent="1" vertex="1">
          <mxGeometry x="-226" y="340" width="100" height="50" as="geometry" />
        </mxCell>
        <mxCell id="es6LMimWQ2Kn1pDAPc1K-7" value="经销商" style="rounded=0;whiteSpace=wrap;html=1;fontSize=17;" parent="1" vertex="1">
          <mxGeometry x="-226" y="410" width="100" height="50" as="geometry" />
        </mxCell>
        <mxCell id="es6LMimWQ2Kn1pDAPc1K-8" value="行政财务" style="rounded=0;whiteSpace=wrap;html=1;fontSize=17;" parent="1" vertex="1">
          <mxGeometry x="-226" y="480" width="100" height="50" as="geometry" />
        </mxCell>
        <mxCell id="es6LMimWQ2Kn1pDAPc1K-13" value="" style="edgeStyle=orthogonalEdgeStyle;rounded=0;orthogonalLoop=1;jettySize=auto;html=1;fillColor=#e1d5e7;strokeColor=#9673a6;strokeWidth=2;fontSize=17;" parent="1" edge="1">
          <mxGeometry relative="1" as="geometry">
            <mxPoint x="569.0000000000002" y="373.0000000000001" as="sourcePoint" />
            <mxPoint x="706" y="373.0000000000001" as="targetPoint" />
          </mxGeometry>
        </mxCell>
        <mxCell id="es6LMimWQ2Kn1pDAPc1K-10" value="&lt;font style=&quot;font-size: 20px;&quot;&gt;RabbitMQ&lt;/font&gt;" style="shape=cylinder3;whiteSpace=wrap;html=1;boundedLbl=1;backgroundOutline=1;size=15;fontSize=17;" parent="1" vertex="1">
          <mxGeometry x="459" y="300" width="110" height="170" as="geometry" />
        </mxCell>
        <mxCell id="es6LMimWQ2Kn1pDAPc1K-15" style="edgeStyle=orthogonalEdgeStyle;rounded=0;orthogonalLoop=1;jettySize=auto;html=1;exitX=1;exitY=0.5;exitDx=0;exitDy=0;fillColor=#e1d5e7;strokeColor=#9673a6;strokeWidth=2;fontSize=17;" parent="1" edge="1">
          <mxGeometry relative="1" as="geometry">
            <mxPoint x="827" y="371.0000000000001" as="sourcePoint" />
            <mxPoint x="960.0000000000002" y="371.0000000000001" as="targetPoint" />
          </mxGeometry>
        </mxCell>
        <mxCell id="es6LMimWQ2Kn1pDAPc1K-32" style="edgeStyle=orthogonalEdgeStyle;rounded=0;orthogonalLoop=1;jettySize=auto;html=1;exitX=0;exitY=0.5;exitDx=0;exitDy=0;fillColor=#fff2cc;strokeColor=#d6b656;strokeWidth=2;fontSize=17;" parent="1" target="es6LMimWQ2Kn1pDAPc1K-10" edge="1">
          <mxGeometry relative="1" as="geometry">
            <mxPoint x="706" y="384.9999999999998" as="sourcePoint" />
          </mxGeometry>
        </mxCell>
        <mxCell id="es6LMimWQ2Kn1pDAPc1K-12" value="数据湖消息转发服务" style="whiteSpace=wrap;html=1;fontSize=17;" parent="1" vertex="1">
          <mxGeometry x="707" y="355" width="120" height="60" as="geometry" />
        </mxCell>
        <mxCell id="es6LMimWQ2Kn1pDAPc1K-23" style="edgeStyle=orthogonalEdgeStyle;rounded=0;orthogonalLoop=1;jettySize=auto;html=1;exitX=1;exitY=0.5;exitDx=0;exitDy=0;exitPerimeter=0;entryX=0;entryY=0.5;entryDx=0;entryDy=0;fillColor=#e1d5e7;strokeColor=#9673a6;strokeWidth=2;fontSize=17;" parent="1" edge="1">
          <mxGeometry relative="1" as="geometry">
            <mxPoint x="1070.0000000000002" y="372.0000000000001" as="sourcePoint" />
            <mxPoint x="1280" y="372.0000000000001" as="targetPoint" />
          </mxGeometry>
        </mxCell>
        <mxCell id="es6LMimWQ2Kn1pDAPc1K-30" style="edgeStyle=orthogonalEdgeStyle;rounded=0;orthogonalLoop=1;jettySize=auto;html=1;exitX=0;exitY=0.5;exitDx=0;exitDy=0;exitPerimeter=0;fillColor=#fff2cc;strokeColor=#d6b656;strokeWidth=2;fontSize=17;" parent="1" source="es6LMimWQ2Kn1pDAPc1K-14" target="es6LMimWQ2Kn1pDAPc1K-12" edge="1">
          <mxGeometry relative="1" as="geometry" />
        </mxCell>
        <mxCell id="es6LMimWQ2Kn1pDAPc1K-14" value="KINESIS" style="shape=cylinder3;whiteSpace=wrap;html=1;boundedLbl=1;backgroundOutline=1;size=15;fontSize=17;" parent="1" vertex="1">
          <mxGeometry x="960" y="300" width="110" height="170" as="geometry" />
        </mxCell>
        <mxCell id="es6LMimWQ2Kn1pDAPc1K-31" style="edgeStyle=orthogonalEdgeStyle;rounded=0;orthogonalLoop=1;jettySize=auto;html=1;exitX=0;exitY=0.5;exitDx=0;exitDy=0;fillColor=#fff2cc;strokeColor=#d6b656;strokeWidth=2;fontSize=17;" parent="1" source="es6LMimWQ2Kn1pDAPc1K-16" target="es6LMimWQ2Kn1pDAPc1K-14" edge="1">
          <mxGeometry relative="1" as="geometry" />
        </mxCell>
        <mxCell id="es6LMimWQ2Kn1pDAPc1K-44" style="edgeStyle=orthogonalEdgeStyle;rounded=0;orthogonalLoop=1;jettySize=auto;html=1;exitX=0.5;exitY=1;exitDx=0;exitDy=0;entryX=0.5;entryY=1;entryDx=0;entryDy=0;dashed=1;" parent="1" source="es6LMimWQ2Kn1pDAPc1K-16" target="es6LMimWQ2Kn1pDAPc1K-9" edge="1">
          <mxGeometry relative="1" as="geometry" />
        </mxCell>
        <mxCell id="es6LMimWQ2Kn1pDAPc1K-46" value="&lt;font style=&quot;font-size: 16px;&quot;&gt;&lt;b&gt;特殊场景：C4I报表展示等&lt;/b&gt;&lt;/font&gt;" style="edgeLabel;html=1;align=center;verticalAlign=middle;resizable=0;points=[];" parent="es6LMimWQ2Kn1pDAPc1K-44" vertex="1" connectable="0">
          <mxGeometry x="0.0626" y="-3" relative="1" as="geometry">
            <mxPoint as="offset" />
          </mxGeometry>
        </mxCell>
        <mxCell id="es6LMimWQ2Kn1pDAPc1K-16" value="&lt;font size=&quot;1&quot; style=&quot;&quot;&gt;&lt;b style=&quot;font-size: 22px;&quot;&gt;数据湖&lt;/b&gt;&lt;/font&gt;" style="rounded=1;whiteSpace=wrap;html=1;dashed=1;verticalAlign=top;fontSize=17;" parent="1" vertex="1">
          <mxGeometry x="1280" y="245" width="200" height="280" as="geometry" />
        </mxCell>
        <mxCell id="es6LMimWQ2Kn1pDAPc1K-19" value="麒麟系统" style="rounded=0;whiteSpace=wrap;html=1;fontSize=17;" parent="1" vertex="1">
          <mxGeometry x="1342" y="305" width="100" height="50" as="geometry" />
        </mxCell>
        <mxCell id="es6LMimWQ2Kn1pDAPc1K-20" value="DalaLake" style="rounded=0;whiteSpace=wrap;html=1;fontSize=17;" parent="1" vertex="1">
          <mxGeometry x="1342" y="375" width="100" height="50" as="geometry" />
        </mxCell>
        <mxCell id="es6LMimWQ2Kn1pDAPc1K-21" value="... ..." style="rounded=0;whiteSpace=wrap;html=1;fontSize=17;" parent="1" vertex="1">
          <mxGeometry x="1342" y="445" width="100" height="50" as="geometry" />
        </mxCell>
        <mxCell id="es6LMimWQ2Kn1pDAPc1K-38" value="" style="edgeStyle=orthogonalEdgeStyle;rounded=0;orthogonalLoop=1;jettySize=auto;html=1;fillColor=#e1d5e7;strokeColor=#9673a6;strokeWidth=2;" parent="1" edge="1">
          <mxGeometry relative="1" as="geometry">
            <mxPoint x="1010.0000000000002" y="650.0000000000001" as="sourcePoint" />
            <mxPoint x="1147" y="650.0000000000001" as="targetPoint" />
          </mxGeometry>
        </mxCell>
        <mxCell id="es6LMimWQ2Kn1pDAPc1K-39" value="IT侧数据发生变更，通知数据湖（例如：XXX主数据）" style="text;html=1;align=left;verticalAlign=middle;whiteSpace=wrap;rounded=0;fontStyle=1;fontSize=15;" parent="1" vertex="1">
          <mxGeometry x="1160" y="640" width="380" height="30" as="geometry" />
        </mxCell>
        <mxCell id="es6LMimWQ2Kn1pDAPc1K-41" value="" style="edgeStyle=orthogonalEdgeStyle;rounded=0;orthogonalLoop=1;jettySize=auto;html=1;fillColor=#ffe6cc;strokeColor=#d79b00;strokeWidth=2;" parent="1" edge="1">
          <mxGeometry relative="1" as="geometry">
            <mxPoint x="1010.0000000000002" y="710.0000000000001" as="sourcePoint" />
            <mxPoint x="1147" y="710.0000000000001" as="targetPoint" />
          </mxGeometry>
        </mxCell>
        <mxCell id="es6LMimWQ2Kn1pDAPc1K-43" value="数据湖数据发生变更，通知IT侧（例如：爬虫数据）" style="text;html=1;align=left;verticalAlign=middle;whiteSpace=wrap;rounded=0;fontStyle=1;fontSize=15;" parent="1" vertex="1">
          <mxGeometry x="1160" y="690" width="380" height="30" as="geometry" />
        </mxCell>
        <mxCell id="es6LMimWQ2Kn1pDAPc1K-48" style="edgeStyle=orthogonalEdgeStyle;rounded=0;orthogonalLoop=1;jettySize=auto;html=1;exitX=0.5;exitY=1;exitDx=0;exitDy=0;exitPerimeter=0;entryX=0.995;entryY=0.821;entryDx=0;entryDy=0;entryPerimeter=0;fillColor=#ffe6cc;strokeColor=#d79b00;" parent="1" source="es6LMimWQ2Kn1pDAPc1K-10" target="es6LMimWQ2Kn1pDAPc1K-9" edge="1">
          <mxGeometry relative="1" as="geometry" />
        </mxCell>
        <mxCell id="es6LMimWQ2Kn1pDAPc1K-49" value="&lt;font style=&quot;font-size: 22px;&quot;&gt;&lt;b&gt;CANAL ？&lt;br&gt;DMS ？&lt;/b&gt;&lt;/font&gt;" style="shape=process;whiteSpace=wrap;html=1;backgroundOutline=1;fillColor=#fff2cc;strokeColor=#d6b656;" parent="1" vertex="1">
          <mxGeometry x="140" y="321" width="170" height="90" as="geometry" />
        </mxCell>
        <mxCell id="es6LMimWQ2Kn1pDAPc1K-51" style="edgeStyle=orthogonalEdgeStyle;rounded=0;orthogonalLoop=1;jettySize=auto;html=1;exitX=1;exitY=0.5;exitDx=0;exitDy=0;entryX=0;entryY=0.5;entryDx=0;entryDy=0;entryPerimeter=0;fillColor=#e1d5e7;strokeColor=#9673a6;strokeWidth=2;" parent="1" edge="1">
          <mxGeometry relative="1" as="geometry">
            <mxPoint x="310" y="368" as="sourcePoint" />
            <mxPoint x="459" y="368" as="targetPoint" />
          </mxGeometry>
        </mxCell>
        <mxCell id="es6LMimWQ2Kn1pDAPc1K-53" style="edgeStyle=orthogonalEdgeStyle;rounded=0;orthogonalLoop=1;jettySize=auto;html=1;exitX=1;exitY=0.5;exitDx=0;exitDy=0;entryX=0;entryY=0.5;entryDx=0;entryDy=0;entryPerimeter=0;strokeWidth=2;fillColor=#e1d5e7;strokeColor=#9673a6;" parent="1" edge="1">
          <mxGeometry relative="1" as="geometry">
            <mxPoint x="24.000000000000455" y="446.0000000000002" as="sourcePoint" />
            <mxPoint x="459" y="446" as="targetPoint" />
          </mxGeometry>
        </mxCell>
        <mxCell id="es6LMimWQ2Kn1pDAPc1K-54" style="edgeStyle=orthogonalEdgeStyle;curved=1;rounded=0;orthogonalLoop=1;jettySize=auto;html=1;entryX=0.339;entryY=0.98;entryDx=0;entryDy=0;fillColor=#e1d5e7;strokeColor=#9673a6;strokeWidth=2;entryPerimeter=0;" parent="1" source="es6LMimWQ2Kn1pDAPc1K-55" target="es6LMimWQ2Kn1pDAPc1K-57" edge="1">
          <mxGeometry relative="1" as="geometry" />
        </mxCell>
        <mxCell id="es6LMimWQ2Kn1pDAPc1K-55" value="&lt;font style=&quot;font-size: 16px;&quot;&gt;小区主数据&lt;/font&gt;" style="rounded=0;whiteSpace=wrap;html=1;align=left;fontStyle=1" parent="1" vertex="1">
          <mxGeometry x="-320" y="1448" width="886" height="60" as="geometry" />
        </mxCell>
        <mxCell id="es6LMimWQ2Kn1pDAPc1K-56" style="edgeStyle=orthogonalEdgeStyle;curved=1;rounded=0;orthogonalLoop=1;jettySize=auto;html=1;exitX=0.75;exitY=1;exitDx=0;exitDy=0;fillColor=#ffe6cc;strokeColor=#d79b00;strokeWidth=2;entryX=0.576;entryY=-0.028;entryDx=0;entryDy=0;entryPerimeter=0;" parent="1" source="es6LMimWQ2Kn1pDAPc1K-57" target="es6LMimWQ2Kn1pDAPc1K-55" edge="1">
          <mxGeometry relative="1" as="geometry" />
        </mxCell>
        <mxCell id="es6LMimWQ2Kn1pDAPc1K-83" style="edgeStyle=orthogonalEdgeStyle;rounded=0;orthogonalLoop=1;jettySize=auto;html=1;exitX=0.25;exitY=0;exitDx=0;exitDy=0;entryX=0.864;entryY=0.983;entryDx=0;entryDy=0;curved=1;fillColor=#e1d5e7;strokeColor=#9673a6;strokeWidth=2;entryPerimeter=0;" parent="1" source="es6LMimWQ2Kn1pDAPc1K-57" target="es6LMimWQ2Kn1pDAPc1K-61" edge="1">
          <mxGeometry relative="1" as="geometry" />
        </mxCell>
        <mxCell id="es6LMimWQ2Kn1pDAPc1K-57" value="RabbitMQ / KafKa" style="rounded=0;whiteSpace=wrap;html=1;fillColor=#60a917;strokeColor=#2D7600;fontColor=#ffffff;fontSize=17;" parent="1" vertex="1">
          <mxGeometry x="115" y="1270" width="220" height="60" as="geometry" />
        </mxCell>
        <mxCell id="es6LMimWQ2Kn1pDAPc1K-95" style="edgeStyle=orthogonalEdgeStyle;rounded=0;orthogonalLoop=1;jettySize=auto;html=1;entryX=0.75;entryY=0;entryDx=0;entryDy=0;curved=1;strokeWidth=2;fillColor=#ffe6cc;strokeColor=#d79b00;exitX=0;exitY=0.5;exitDx=0;exitDy=0;" parent="1" source="pive_YGZ8aj-ZetJPHNV-5" target="es6LMimWQ2Kn1pDAPc1K-57" edge="1">
          <mxGeometry relative="1" as="geometry">
            <mxPoint x="380" y="1180" as="sourcePoint" />
          </mxGeometry>
        </mxCell>
        <mxCell id="pive_YGZ8aj-ZetJPHNV-6" style="edgeStyle=orthogonalEdgeStyle;rounded=0;orthogonalLoop=1;jettySize=auto;html=1;exitX=0.5;exitY=1;exitDx=0;exitDy=0;entryX=0.5;entryY=0;entryDx=0;entryDy=0;fillColor=#fff2cc;strokeColor=#d6b656;strokeWidth=2;" edge="1" parent="1" source="es6LMimWQ2Kn1pDAPc1K-59" target="pive_YGZ8aj-ZetJPHNV-5">
          <mxGeometry relative="1" as="geometry" />
        </mxCell>
        <mxCell id="pive_YGZ8aj-ZetJPHNV-8" style="edgeStyle=orthogonalEdgeStyle;rounded=0;orthogonalLoop=1;jettySize=auto;html=1;exitX=1;exitY=0.5;exitDx=0;exitDy=0;entryX=0.75;entryY=0;entryDx=0;entryDy=0;curved=1;fillColor=#eeeeee;strokeColor=#36393d;strokeWidth=2;" edge="1" parent="1" source="es6LMimWQ2Kn1pDAPc1K-59" target="es6LMimWQ2Kn1pDAPc1K-55">
          <mxGeometry relative="1" as="geometry">
            <Array as="points">
              <mxPoint x="800" y="1030" />
              <mxPoint x="800" y="1260" />
              <mxPoint x="345" y="1260" />
            </Array>
          </mxGeometry>
        </mxCell>
        <mxCell id="pive_YGZ8aj-ZetJPHNV-9" value="Text" style="edgeLabel;html=1;align=center;verticalAlign=middle;resizable=0;points=[];" vertex="1" connectable="0" parent="pive_YGZ8aj-ZetJPHNV-8">
          <mxGeometry x="0.2467" y="2" relative="1" as="geometry">
            <mxPoint x="-1" as="offset" />
          </mxGeometry>
        </mxCell>
        <mxCell id="es6LMimWQ2Kn1pDAPc1K-59" value="爬虫数据" style="rounded=0;whiteSpace=wrap;html=1;fillColor=#e1d5e7;strokeColor=#9673a6;fontSize=19;fontStyle=1" parent="1" vertex="1">
          <mxGeometry x="436" y="1000" width="220" height="60" as="geometry" />
        </mxCell>
        <mxCell id="es6LMimWQ2Kn1pDAPc1K-61" value="小区数据" style="rounded=0;whiteSpace=wrap;html=1;fillColor=#e1d5e7;strokeColor=#9673a6;fontSize=19;fontStyle=1" parent="1" vertex="1">
          <mxGeometry x="-156" y="1091" width="220" height="60" as="geometry" />
        </mxCell>
        <mxCell id="es6LMimWQ2Kn1pDAPc1K-62" value="" style="rounded=0;whiteSpace=wrap;html=1;fillColor=#d5e8d4;strokeColor=#82b366;fontStyle=1" parent="1" vertex="1">
          <mxGeometry x="-224" y="1458" width="110" height="40" as="geometry" />
        </mxCell>
        <mxCell id="es6LMimWQ2Kn1pDAPc1K-63" value="" style="rounded=0;whiteSpace=wrap;html=1;fillColor=#d5e8d4;strokeColor=#82b366;fontStyle=1" parent="1" vertex="1">
          <mxGeometry x="-114" y="1458" width="110" height="40" as="geometry" />
        </mxCell>
        <mxCell id="es6LMimWQ2Kn1pDAPc1K-96" style="edgeStyle=orthogonalEdgeStyle;rounded=0;orthogonalLoop=1;jettySize=auto;html=1;entryX=0.25;entryY=1;entryDx=0;entryDy=0;curved=1;fillColor=#f8cecc;strokeColor=#b85450;strokeWidth=2;exitX=0.5;exitY=0;exitDx=0;exitDy=0;" parent="1" source="es6LMimWQ2Kn1pDAPc1K-97" target="es6LMimWQ2Kn1pDAPc1K-61" edge="1">
          <mxGeometry relative="1" as="geometry">
            <mxPoint x="10" y="1450" as="sourcePoint" />
          </mxGeometry>
        </mxCell>
        <mxCell id="es6LMimWQ2Kn1pDAPc1K-64" value="小区户数" style="rounded=0;whiteSpace=wrap;html=1;fillColor=#e1d5e7;strokeColor=#9673a6;fontStyle=1" parent="1" vertex="1">
          <mxGeometry x="-4" y="1458" width="110" height="40" as="geometry" />
        </mxCell>
        <mxCell id="es6LMimWQ2Kn1pDAPc1K-65" value="小区房价" style="rounded=0;whiteSpace=wrap;html=1;fillColor=#e1d5e7;strokeColor=#9673a6;fontStyle=1" parent="1" vertex="1">
          <mxGeometry x="106" y="1458" width="110" height="40" as="geometry" />
        </mxCell>
        <mxCell id="es6LMimWQ2Kn1pDAPc1K-66" value="" style="rounded=0;whiteSpace=wrap;html=1;fillColor=#f8cecc;strokeColor=#b85450;fontStyle=1" parent="1" vertex="1">
          <mxGeometry x="216" y="1458" width="110" height="40" as="geometry" />
        </mxCell>
        <mxCell id="es6LMimWQ2Kn1pDAPc1K-67" value="" style="rounded=0;whiteSpace=wrap;html=1;fillColor=#f8cecc;strokeColor=#b85450;fontStyle=1" parent="1" vertex="1">
          <mxGeometry x="326" y="1458" width="110" height="40" as="geometry" />
        </mxCell>
        <mxCell id="es6LMimWQ2Kn1pDAPc1K-68" value="0=&amp;gt;数据湖&lt;br&gt;1=&amp;gt;业务侧更新" style="rounded=0;whiteSpace=wrap;html=1;fillColor=#f8cecc;strokeColor=#b85450;fontStyle=1" parent="1" vertex="1">
          <mxGeometry x="436" y="1458" width="110" height="40" as="geometry" />
        </mxCell>
        <mxCell id="es6LMimWQ2Kn1pDAPc1K-69" style="edgeStyle=orthogonalEdgeStyle;curved=1;rounded=0;orthogonalLoop=1;jettySize=auto;html=1;exitX=0;exitY=0.5;exitDx=0;exitDy=0;entryX=1;entryY=0.5;entryDx=0;entryDy=0;fontStyle=1" parent="1" source="es6LMimWQ2Kn1pDAPc1K-70" target="es6LMimWQ2Kn1pDAPc1K-68" edge="1">
          <mxGeometry relative="1" as="geometry" />
        </mxCell>
        <mxCell id="es6LMimWQ2Kn1pDAPc1K-70" value="业代采集更新" style="rounded=0;whiteSpace=wrap;html=1;fillColor=#f8cecc;strokeColor=#b85450;fontStyle=1;fontSize=15;" parent="1" vertex="1">
          <mxGeometry x="687" y="1448" width="140" height="60" as="geometry" />
        </mxCell>
        <mxCell id="es6LMimWQ2Kn1pDAPc1K-73" value="&lt;font style=&quot;font-size: 19px;&quot;&gt;&lt;br&gt;爬虫数据投递到MQ中，CRM进行数据消费&lt;br&gt;1、如果业务采集数据更新确认后，爬虫数据不更新（不消费）&lt;br&gt;&lt;/font&gt;&lt;div style=&quot;font-size: 19px;&quot;&gt;&lt;span style=&quot;background-color: initial;&quot;&gt;&lt;font style=&quot;font-size: 19px;&quot;&gt;2、否则直接更新CRM的小区主数据（成功消费）&lt;br&gt;逻辑最终由产品给出，上面步骤仅供参考&lt;br&gt;&lt;br&gt;CRM数据一旦发生变更，需要将增量变更信息发送到MQ中。&lt;br&gt;将最新数据给到数据湖，以支持数据湖侧数据实时性&lt;br&gt;&lt;br&gt;&lt;/font&gt;&lt;/span&gt;&lt;/div&gt;" style="text;html=1;align=left;verticalAlign=middle;whiteSpace=wrap;rounded=0;" parent="1" vertex="1">
          <mxGeometry x="-80" y="1530" width="530" height="160" as="geometry" />
        </mxCell>
        <mxCell id="es6LMimWQ2Kn1pDAPc1K-98" value="临时处理，直接爬虫数据给到CRM" style="text;html=1;align=center;verticalAlign=middle;whiteSpace=wrap;rounded=0;fontStyle=1;fillColor=#ffff88;strokeColor=#36393d;dashed=1;" parent="1" vertex="1">
          <mxGeometry x="459" y="1250" width="244" height="30" as="geometry" />
        </mxCell>
        <mxCell id="es6LMimWQ2Kn1pDAPc1K-100" value="" style="edgeStyle=orthogonalEdgeStyle;rounded=0;orthogonalLoop=1;jettySize=auto;html=1;entryX=0.5;entryY=1;entryDx=0;entryDy=0;curved=1;fillColor=#f8cecc;strokeColor=#b85450;strokeWidth=2;exitX=0.171;exitY=-0.045;exitDx=0;exitDy=0;exitPerimeter=0;" parent="1" source="es6LMimWQ2Kn1pDAPc1K-55" target="es6LMimWQ2Kn1pDAPc1K-97" edge="1">
          <mxGeometry relative="1" as="geometry">
            <mxPoint x="-168" y="1445" as="sourcePoint" />
            <mxPoint x="-101" y="1151" as="targetPoint" />
          </mxGeometry>
        </mxCell>
        <mxCell id="es6LMimWQ2Kn1pDAPc1K-97" value="S1&lt;br&gt;临时方案：T+1" style="text;html=1;align=center;verticalAlign=middle;whiteSpace=wrap;rounded=0;fontStyle=1;fillColor=#ffe6cc;strokeColor=#d79b00;" parent="1" vertex="1">
          <mxGeometry x="-223" y="1270" width="109" height="30" as="geometry" />
        </mxCell>
        <mxCell id="pive_YGZ8aj-ZetJPHNV-2" value="审批&amp;amp;更新 规则&lt;br&gt;正在推进中" style="rounded=1;whiteSpace=wrap;html=1;opacity=30;dashed=1;verticalAlign=top;fillColor=#f8cecc;strokeColor=#b85450;" vertex="1" parent="1">
          <mxGeometry x="-330" y="1400" width="1164" height="120" as="geometry" />
        </mxCell>
        <mxCell id="pive_YGZ8aj-ZetJPHNV-4" value="半年一拉，爬虫数据更新规则&lt;br&gt;可以迟些讨论" style="rounded=1;whiteSpace=wrap;html=1;dashed=1;opacity=30;verticalAlign=top;fillColor=#f5f5f5;fontColor=#333333;strokeColor=#666666;" vertex="1" parent="1">
          <mxGeometry x="417" y="960" width="263" height="250" as="geometry" />
        </mxCell>
        <mxCell id="pive_YGZ8aj-ZetJPHNV-5" value="数据处理" style="rounded=0;whiteSpace=wrap;html=1;fillColor=#e1d5e7;strokeColor=#9673a6;fontSize=19;fontStyle=1" vertex="1" parent="1">
          <mxGeometry x="436" y="1109" width="220" height="60" as="geometry" />
        </mxCell>
        <mxCell id="pive_YGZ8aj-ZetJPHNV-12" value="S2&amp;nbsp; 进行交互完善" style="text;html=1;align=center;verticalAlign=middle;whiteSpace=wrap;rounded=0;fontStyle=1;fillColor=#dae8fc;strokeColor=#6c8ebf;dashed=1;" vertex="1" parent="1">
          <mxGeometry x="116" y="1230" width="244" height="30" as="geometry" />
        </mxCell>
      </root>
    </mxGraphModel>
  </diagram>
</mxfile>
